<?xml version="1.0" encoding="UTF-8"?>
<svg xmlns="http://www.w3.org/2000/svg" xmlns:xlink="http://www.w3.org/1999/xlink" width="187pt" height="150pt" viewBox="0 0 187 150" version="1.1">
<g id="surface1">
<path style=" stroke:none;fill-rule:nonzero;fill:rgb(100%,100%,100%);fill-opacity:1;" d="M 51.425781 75 C 64.3125 75 74.800781 64.484375 74.800781 51.5625 C 74.800781 38.640625 64.3125 28.125 51.425781 28.125 C 38.535156 28.125 28.050781 38.640625 28.050781 51.5625 C 28.050781 64.484375 38.535156 75 51.425781 75 Z M 154.273438 37.5 L 88.824219 37.5 C 86.242188 37.5 84.148438 39.597656 84.148438 42.1875 L 84.148438 84.375 L 18.699219 84.375 L 18.699219 23.4375 C 18.699219 20.847656 16.609375 18.75 14.023438 18.75 L 4.675781 18.75 C 2.09375 18.75 0 20.847656 0 23.4375 L 0 126.5625 C 0 129.152344 2.09375 131.25 4.675781 131.25 L 14.023438 131.25 C 16.609375 131.25 18.699219 129.152344 18.699219 126.5625 L 18.699219 112.5 L 168.300781 112.5 L 168.300781 126.5625 C 168.300781 129.152344 170.390625 131.25 172.976562 131.25 L 182.324219 131.25 C 184.90625 131.25 187 129.152344 187 126.5625 L 187 70.3125 C 187 52.1875 172.351562 37.5 154.273438 37.5 Z M 154.273438 37.5 "/>
</g>
</svg>
