<?xml version="1.0" encoding="UTF-8"?>
<svg xmlns="http://www.w3.org/2000/svg" xmlns:xlink="http://www.w3.org/1999/xlink" width="187pt" height="150pt" viewBox="0 0 187 150" version="1.1">
<g id="surface1">
<path style=" stroke:none;fill-rule:nonzero;fill:rgb(100%,100%,100%);fill-opacity:1;" d="M 182.324219 131.25 L 4.675781 131.25 C 2.09375 131.25 0 133.347656 0 135.9375 L 0 145.3125 C 0 147.902344 2.09375 150 4.675781 150 L 182.324219 150 C 184.90625 150 187 147.902344 187 145.3125 L 187 135.9375 C 187 133.347656 184.90625 131.25 182.324219 131.25 Z M 23.535156 99.980469 C 25.371094 101.984375 27.949219 103.121094 30.644531 103.117188 L 68.785156 103.066406 C 71.796875 103.0625 74.765625 102.347656 77.445312 100.980469 L 162.460938 57.722656 C 170.273438 53.746094 177.277344 48.074219 182.042969 40.640625 C 187.394531 32.296875 187.976562 26.257812 185.863281 21.992188 C 183.757812 17.722656 178.632812 14.589844 168.84375 13.949219 C 160.121094 13.382812 151.445312 15.683594 143.632812 19.65625 L 114.851562 34.304688 L 50.949219 10.261719 C 49.382812 9.207031 47.371094 9.082031 45.6875 9.9375 L 26.476562 19.714844 C 23.359375 21.296875 22.605469 25.472656 24.96875 28.074219 L 70.613281 56.8125 L 40.457031 72.15625 L 19.316406 61.472656 C 17.839844 60.726562 16.097656 60.730469 14.621094 61.480469 L 2.894531 67.445312 C -0.15625 69 -0.957031 73.046875 1.269531 75.671875 Z M 23.535156 99.980469 "/>
</g>
</svg>
