<?xml version="1.0" encoding="UTF-8"?>
<svg xmlns="http://www.w3.org/2000/svg" xmlns:xlink="http://www.w3.org/1999/xlink" width="150pt" height="150pt" viewBox="0 0 150 150" version="1.1">
<g id="surface1">
<path style=" stroke:none;fill-rule:nonzero;fill:rgb(100%,100%,100%);fill-opacity:1;" d="M 121.875 93.75 L 93.75 93.75 C 88.59375 93.75 84.375 89.53125 84.375 84.375 C 84.375 79.21875 88.59375 75 93.75 75 L 121.875 75 C 121.875 75 150 43.652344 150 28.125 C 150 12.597656 137.402344 0 121.875 0 C 106.347656 0 93.75 12.597656 93.75 28.125 C 93.75 35.59375 100.253906 46.699219 107.023438 56.25 L 93.75 56.25 C 78.25 56.25 65.625 68.875 65.625 84.375 C 65.625 99.875 78.25 112.5 93.75 112.5 L 121.875 112.5 C 127.03125 112.5 131.25 116.71875 131.25 121.875 C 131.25 127.03125 127.03125 131.25 121.875 131.25 L 54.34375 131.25 C 49.65625 138.515625 44.445312 145.226562 40.488281 150 L 121.875 150 C 137.375 150 150 137.375 150 121.875 C 150 106.375 137.375 93.75 121.875 93.75 Z M 121.875 18.75 C 127.0625 18.75 131.25 22.9375 131.25 28.125 C 131.25 33.3125 127.0625 37.5 121.875 37.5 C 116.6875 37.5 112.5 33.3125 112.5 28.125 C 112.5 22.9375 116.6875 18.75 121.875 18.75 Z M 28.125 75 C 12.597656 75 0 87.597656 0 103.125 C 0 118.652344 28.125 150 28.125 150 C 28.125 150 56.25 118.652344 56.25 103.125 C 56.25 87.597656 43.652344 75 28.125 75 Z M 28.125 112.5 C 22.9375 112.5 18.75 108.3125 18.75 103.125 C 18.75 97.9375 22.9375 93.75 28.125 93.75 C 33.3125 93.75 37.5 97.9375 37.5 103.125 C 37.5 108.3125 33.3125 112.5 28.125 112.5 Z M 28.125 112.5 "/>
</g>
</svg>
